<?xml version="1.0" standalone="no"?>
<!DOCTYPE svg PUBLIC "-//W3C//DTD SVG 20010904//EN"
 "http://www.w3.org/TR/2001/REC-SVG-20010904/DTD/svg10.dtd">
<svg version="1.0" xmlns="http://www.w3.org/2000/svg"
 width="840.000000pt" height="780.000000pt" viewBox="0 0 840.000000 780.000000"
 preserveAspectRatio="xMidYMid meet">

<g transform="translate(0.000000,780.000000) scale(0.100000,-0.100000)"
fill="white" stroke="none">
<path d="M4580 7389 c-1062 -71 -1901 -394 -2260 -871 -71 -94 -133 -219 -154
-309 -33 -148 -36 -180 -36 -447 l0 -277 -148 -41 c-725 -205 -1223 -568
-1340 -979 -39 -140 -42 -180 -42 -661 0 -521 2 -541 66 -670 89 -182 295
-372 559 -519 l50 -27 0 -522 0 -521 27 -73 c177 -485 963 -884 2013 -1021
280 -37 434 -46 785 -46 364 0 499 9 805 51 738 103 1370 342 1735 657 93 80
166 170 219 267 70 130 69 128 72 712 2 599 2 595 -81 763 -99 200 -303 404
-538 537 l-52 30 2 316 3 316 55 13 c257 65 553 173 769 283 208 105 338 196
466 325 112 112 156 174 203 287 l27 63 6 530 c5 409 3 546 -7 601 -102 566
-894 1040 -1984 1188 -341 46 -898 67 -1220 45z m710 -429 c553 -34 1062 -145
1443 -316 258 -116 462 -266 561 -414 41 -62 76 -163 76 -220 0 -57 -35 -158
-76 -220 -229 -341 -917 -619 -1754 -710 -1214 -131 -2520 184 -2886 697 -95
131 -109 264 -43 398 42 86 177 227 291 304 520 347 1462 537 2388 481z
m-2629 -1774 c559 -380 1456 -587 2444 -563 625 16 1153 108 1620 282 195 73
440 199 565 291 33 24 62 44 65 44 13 0 4 -124 -11 -153 -97 -187 -523 -425
-1010 -565 -254 -73 -479 -117 -779 -153 -219 -27 -730 -37 -966 -20 -731 54
-1362 231 -1759 496 -120 80 -231 193 -254 260 -14 43 -23 145 -12 145 2 0 46
-29 97 -64z m-491 -210 c40 -122 145 -267 269 -373 437 -374 1201 -619 2130
-684 211 -15 787 -6 966 15 72 9 134 16 140 16 18 0 -89 -100 -164 -154 -338
-242 -869 -411 -1512 -483 -206 -23 -891 -26 -1084 -5 -802 87 -1408 303
-1710 607 -205 207 -224 387 -63 589 114 142 321 281 579 389 90 38 341 125
404 140 11 3 21 5 22 6 1 0 11 -28 23 -63z m-1023 -1568 c412 -276 989 -453
1733 -530 198 -21 962 -17 1160 5 724 82 1275 253 1678 521 l112 74 0 -59 c0
-78 -25 -126 -105 -205 -244 -239 -827 -473 -1430 -573 -799 -132 -1683 -75
-2387 155 -341 111 -595 245 -755 397 -89 85 -123 148 -123 229 0 32 2 58 5
58 2 0 53 -33 112 -72z m5103 -506 c225 -179 298 -348 228 -527 -158 -404
-989 -745 -1987 -816 -247 -17 -778 -7 -1005 21 -651 77 -1200 262 -1508 508
-112 90 -212 211 -233 281 -6 20 -4 23 11 19 11 -3 82 -24 159 -46 307 -90
627 -147 1030 -184 208 -19 816 -16 1025 5 636 66 1156 203 1581 418 217 110
412 250 524 376 l37 43 30 -18 c16 -9 65 -45 108 -80z m-4433 -1234 c569 -382
1495 -583 2513 -547 853 30 1581 223 2062 546 l108 72 0 -60 c0 -78 -25 -126
-105 -205 -193 -190 -616 -386 -1080 -500 -1040 -256 -2305 -161 -3120 236
-168 81 -276 152 -372 243 -89 85 -123 148 -123 229 0 32 2 58 5 58 2 0 53
-33 112 -72z"/>
</g>
</svg>
