<svg fill="white" id="svg" xmlns="http://www.w3.org/2000/svg" xmlns:xlink="http://www.w3.org/1999/xlink" width="400" height="451.54639175257734" viewBox="0, 0, 400,451.54639175257734" version="1.1"><g id="svgg"><path id="path0" d="M337.818 6.856 C 337.430 7.243,337.113 9.309,337.113 11.447 C 337.113 18.660,331.319 39.574,328.289 43.299 C 327.598 44.149,325.550 48.093,323.738 52.062 C 321.927 56.031,319.629 60.902,318.632 62.887 C 316.644 66.843,314.993 78.763,316.568 77.790 C 317.100 77.461,317.591 79.399,317.672 82.156 C 317.805 86.648,317.885 86.465,318.524 80.205 C 319.283 72.765,320.368 69.719,327.626 54.639 C 334.224 40.929,336.865 34.417,337.606 30.031 C 338.788 23.037,340.173 22.728,340.190 29.454 C 340.207 35.947,337.683 48.873,333.965 61.340 C 330.470 73.057,328.180 89.385,330.928 82.990 C 331.746 81.086,331.827 81.125,331.987 83.505 C 332.083 84.923,332.726 83.299,333.416 79.897 C 334.107 76.495,336.136 69.072,337.926 63.402 C 344.762 41.742,346.299 23.658,342.194 13.182 C 339.846 7.188,338.881 5.793,337.818 6.856 M149.085 35.895 C 148.798 36.359,147.786 40.186,146.837 44.400 C 145.887 48.614,144.470 53.315,143.689 54.846 C 140.395 61.300,143.416 80.081,148.033 81.853 C 149.477 82.407,152.577 76.728,152.577 73.529 C 152.577 72.716,153.608 69.874,154.867 67.211 C 159.687 57.023,154.245 27.546,149.085 35.895 M302.571 41.495 C 294.660 63.804,292.267 98.644,297.481 115.596 C 298.274 118.175,282.456 118.899,234.536 118.480 C 211.856 118.281,186.474 118.251,178.131 118.412 L 162.964 118.706 163.568 108.064 C 163.912 102.009,164.847 95.953,165.737 94.013 C 168.776 87.390,167.226 79.655,164.119 85.939 C 163.379 87.436,162.335 88.660,161.799 88.660 C 161.263 88.660,160.825 89.670,160.825 90.904 C 160.825 92.138,158.621 96.344,155.928 100.250 C 145.627 115.190,144.487 117.358,143.555 123.774 L 142.784 129.087 140.722 126.740 C 138.931 124.702,138.897 124.479,140.464 125.051 C 141.650 125.483,142.268 125.201,142.268 124.227 C 142.268 123.361,141.651 122.982,140.785 123.314 C 138.952 124.018,138.432 121.096,137.660 105.743 C 136.427 81.224,130.584 70.493,111.689 58.049 C 106.954 54.931,101.738 50.751,100.097 48.761 C 95.914 43.686,94.504 47.352,98.316 53.390 C 115.421 80.486,117.760 95.461,109.302 123.711 C 105.193 137.433,103.081 149.003,103.165 157.319 C 103.287 169.285,105.705 170.486,106.332 158.892 C 106.438 156.930,106.681 157.319,107.216 160.309 C 107.840 163.790,107.978 163.226,108.101 156.699 C 108.245 149.110,109.943 141.136,116.426 117.616 C 122.081 97.102,119.633 75.116,110.533 64.691 C 107.949 61.730,111.238 62.477,115.717 65.868 C 127.950 75.130,132.911 86.952,133.936 109.278 C 135.067 133.918,145.131 148.029,147.425 128.190 C 148.394 119.812,149.747 116.440,155.194 108.838 C 159.723 102.516,161.263 101.663,160.444 105.928 C 160.145 107.487,159.340 113.634,158.654 119.588 C 157.371 130.736,157.341 130.409,161.452 149.431 C 161.839 151.222,162.238 151.566,162.825 150.615 C 166.614 144.485,168.269 171.911,164.783 183.074 C 157.844 205.301,146.763 209.887,127.320 198.580 C 119.798 194.206,115.999 191.067,112.747 186.541 C 109.697 182.295,108.650 181.504,106.839 182.082 C 105.629 182.468,103.943 182.830,103.093 182.886 C 102.242 182.943,100.934 183.569,100.186 184.277 C 99.437 184.985,97.582 185.843,96.062 186.185 C 92.842 186.908,83.086 190.148,68.557 195.319 C 53.608 200.639,27.162 214.084,12.612 223.760 L 0.000 232.148 0.000 341.847 L 0.000 451.546 119.998 451.546 L 239.997 451.546 240.732 444.227 C 241.631 435.273,240.601 419.329,238.541 410.309 C 237.699 406.624,236.780 402.448,236.499 401.031 C 228.537 360.891,209.697 333.993,176.588 315.494 C 174.202 314.161,172.461 312.726,172.720 312.306 C 174.583 309.292,192.558 299.233,207.216 293.001 L 215.979 289.276 246.392 289.185 C 278.868 289.087,282.345 288.600,288.233 283.328 C 289.694 282.019,294.319 280.756,302.666 279.386 C 309.421 278.277,317.848 276.662,321.392 275.798 C 324.936 274.934,330.966 273.467,334.794 272.539 C 341.090 271.011,349.830 267.880,356.701 264.691 C 364.538 261.053,381.443 246.304,381.443 243.104 C 381.443 242.694,382.764 240.119,384.378 237.382 C 395.369 218.741,396.460 190.905,386.967 171.312 C 384.256 165.715,371.875 152.192,370.603 153.438 C 370.218 153.815,370.027 152.964,370.179 151.546 C 370.707 146.628,364.511 131.959,361.906 131.959 C 361.414 131.959,360.459 135.322,359.783 139.433 C 359.107 143.544,358.118 148.299,357.585 150.000 C 357.053 151.701,355.710 157.240,354.600 162.308 C 353.491 167.377,352.093 171.827,351.494 172.197 C 350.895 172.568,349.697 175.611,348.831 178.961 C 343.494 199.624,328.076 213.849,318.341 207.093 C 316.804 206.027,314.866 205.155,314.034 205.155 C 307.695 205.155,304.285 189.050,307.019 172.028 C 309.007 159.652,309.014 158.938,307.273 147.680 C 306.214 140.835,305.884 136.082,306.468 136.082 C 307.655 136.082,307.280 134.263,303.600 122.165 C 297.479 102.045,296.949 96.413,299.492 78.483 C 302.518 57.146,302.229 57.396,307.678 71.407 C 311.344 80.831,314.264 86.607,312.887 81.708 C 312.352 79.806,312.570 79.502,314.108 80.001 C 315.213 80.359,315.534 80.251,314.891 79.736 C 313.600 78.704,309.278 67.029,309.278 64.574 C 309.278 63.633,308.297 60.776,307.098 58.225 C 305.260 54.316,305.030 52.532,305.633 46.896 C 306.315 40.529,304.222 36.838,302.571 41.495 M153.181 51.261 C 153.906 56.095,153.445 58.536,149.962 68.287 C 147.918 74.009,146.768 73.831,145.841 67.649 C 145.166 63.147,149.747 46.392,151.654 46.392 C 152.092 46.392,152.780 48.583,153.181 51.261 M353.839 55.928 C 349.879 63.922,348.453 68.887,346.952 79.897 C 346.024 86.701,344.869 93.743,344.385 95.547 C 343.654 98.270,343.770 98.724,345.067 98.226 C 346.285 97.758,346.492 98.172,346.006 100.102 C 345.638 101.564,346.024 101.177,346.949 99.158 C 349.335 93.951,351.546 84.611,351.546 79.741 C 351.546 71.666,353.244 74.244,354.566 84.327 C 355.287 89.829,356.584 97.113,357.447 100.515 C 358.310 103.918,359.030 111.253,359.047 116.817 C 359.064 122.613,359.443 126.356,359.935 125.580 C 360.510 124.673,360.832 125.247,360.912 127.320 C 361.028 130.358,361.045 130.367,361.856 127.835 C 363.286 123.368,362.993 102.265,361.414 96.025 C 358.951 86.293,357.564 71.154,358.308 62.113 C 359.051 53.076,356.796 49.956,353.839 55.928 M141.495 168.947 C 139.001 175.430,138.519 178.878,140.256 177.805 C 140.850 177.437,141.242 176.366,141.128 175.424 C 141.014 174.482,141.292 172.784,141.746 171.649 C 142.201 170.515,143.176 168.080,143.914 166.237 C 144.652 164.394,144.931 162.893,144.535 162.902 C 144.139 162.910,142.771 165.630,141.495 168.947 M338.776 170.236 C 339.033 172.714,339.411 176.436,339.614 178.507 C 339.939 181.824,338.991 187.510,336.717 195.876 C 336.292 197.441,336.906 196.833,338.278 194.330 C 340.905 189.540,341.821 169.245,339.514 166.937 C 338.592 166.015,338.418 166.793,338.776 170.236 M138.805 181.660 C 138.457 182.958,138.224 185.644,138.287 187.629 C 138.374 190.384,138.596 189.897,139.222 185.571 C 140.084 179.617,139.876 177.662,138.805 181.660 " stroke="none" fill-rule="evenodd"></path></g></svg>