<?xml version="1.0" encoding="utf-8"?>
<svg fill="White" viewBox="172.9376 77.4858 118.3747 172.2465" xmlns="http://www.w3.org/2000/svg">
  <g transform="matrix(2.1405909061431885, 0, 0, 1.8131210803985596, 125.24588012695312, 72.86229705810547)" style="">
    <g>
      <path d="M53.4,67.4h-8.1V45.3c0-3-2.4-5.4-5.4-5.4c-3,0-5.4,2.4-5.4,5.4v22.1h-8.1c-3.2,0-5.2,3.5-3.5,6.3l13.4,21.9     c1.6,2.6,5.4,2.6,7,0l13.4-21.9C58.6,70.9,56.6,67.4,53.4,67.4z"/>
      <path d="M77,26.4L63.5,4.5c-1.6-2.6-5.4-2.6-7,0L43.1,26.4c-1.7,2.7,0.3,6.3,3.5,6.3h8.1v22.1c0,3,2.4,5.4,5.4,5.4     c3,0,5.4-2.4,5.4-5.4V32.6h8.1C76.7,32.6,78.6,29.1,77,26.4z"/>
    </g>
  </g>
</svg>