<?xml version="1.0" encoding="UTF-8" standalone="no" ?>
<!DOCTYPE svg PUBLIC "-//W3C//DTD SVG 1.1//EN" "http://www.w3.org/Graphics/SVG/1.1/DTD/svg11.dtd">
<svg xmlns="http://www.w3.org/2000/svg" xmlns:xlink="http://www.w3.org/1999/xlink" version="1.1" width="1080" height="1080" viewBox="0 0 1080 1080" xml:space="preserve">
<desc>Created with Fabric.js 5.2.4</desc>
<defs>
</defs>
<rect x="0" y="0" width="100%" height="100%" fill="transparent"></rect>
<g transform="matrix(1 0 0 1 540 540)" id="242b6a52-6ccb-4ae1-aa98-889064e31e5e"  >
</g>
<g transform="matrix(1 0 0 1 540 540)" id="9c099f40-01de-414b-a584-ed17f59145ee"  >
<rect style="stroke: none; stroke-width: 1; stroke-dasharray: none; stroke-linecap: butt; stroke-dashoffset: 0; stroke-linejoin: miter; stroke-miterlimit: 4; fill: rgb(255,255,255); fill-rule: nonzero; opacity: 1; visibility: hidden;" vector-effect="non-scaling-stroke"  x="-540" y="-540" rx="0" ry="0" width="1080" height="1080" />
</g>
<g transform="matrix(1 0 0 1 540 540)"  >
<g style="" vector-effect="non-scaling-stroke"   >
		<g transform="matrix(2.14 0 0 1.81 -21.57 33.77)"  >
<path style="stroke: none; stroke-width: 1; stroke-dasharray: none; stroke-linecap: butt; stroke-dashoffset: 0; stroke-linejoin: miter; stroke-miterlimit: 4; fill: rgb(0,0,0); fill-rule: nonzero; opacity: 1;" vector-effect="non-scaling-stroke"  transform=" translate(-39.86, -68.72)" d="M 53.4 67.4 L 45.3 67.4 L 45.3 45.3 C 45.3 42.3 42.9 39.9 39.9 39.9 C 36.9 39.9 34.5 42.3 34.5 45.3 L 34.5 67.4 L 26.4 67.4 C 23.2 67.4 21.2 70.9 22.9 73.7 L 36.3 95.6 C 37.9 98.19999999999999 41.699999999999996 98.19999999999999 43.3 95.6 L 56.699999999999996 73.69999999999999 C 58.6 70.9 56.6 67.4 53.4 67.4 z" stroke-linecap="round" />
</g>
		<g transform="matrix(2.14 0 0 1.81 21.61 -33.95)"  >
<path style="stroke: none; stroke-width: 1; stroke-dasharray: none; stroke-linecap: butt; stroke-dashoffset: 0; stroke-linejoin: miter; stroke-miterlimit: 4; fill: rgb(0,0,0); fill-rule: nonzero; opacity: 1;" vector-effect="non-scaling-stroke"  transform=" translate(-60.03, -31.38)" d="M 77 26.4 L 63.5 4.5 C 61.9 1.9 58.1 1.9 56.5 4.5 L 43.1 26.4 C 41.4 29.099999999999998 43.4 32.699999999999996 46.6 32.699999999999996 L 54.7 32.699999999999996 L 54.7 54.8 C 54.7 57.8 57.1 60.199999999999996 60.1 60.199999999999996 C 63.1 60.199999999999996 65.5 57.8 65.5 54.8 L 65.5 32.6 L 73.6 32.6 C 76.7 32.6 78.6 29.1 77 26.4 z" stroke-linecap="round" />
</g>
</g>
</g>
<g transform="matrix(1 0 0 1 540 646.63)" style="" id="6111ce1b-5a17-46a4-9ec9-cc8781468bfd"  >
		<text xml:space="preserve" font-family="Lato" font-size="40" font-style="normal" font-weight="400" style="stroke: none; stroke-width: 1; stroke-dasharray: none; stroke-linecap: butt; stroke-dashoffset: 0; stroke-linejoin: miter; stroke-miterlimit: 4; fill: rgb(255,255,255); fill-rule: nonzero; opacity: 1; white-space: pre;" ><tspan x="-44.4" y="12.57" >S</tspan><tspan x="-25" y="12.57" >w</tspan><tspan x="3.84" y="12.57" >a</tspan><tspan x="22.32" y="12.57" >p</tspan></text>
</g>
</svg>