<svg id="svg" version="1.1" xmlns="http://www.w3.org/2000/svg" xmlns:xlink="http://www.w3.org/1999/xlink" width="400" height="400" viewBox="0, 0, 400,400"><g id="svgg"><path id="path0" d="M132.506 9.718 C -79.955 89.993,-26.421 397.840,200.000 397.840 C 422.185 397.840,479.635 93.315,272.899 11.429 C 237.499 -2.592,167.350 -3.447,132.506 9.718 M97.765 18.234 C 58.339 41.849,16.031 89.628,5.880 122.000 C 4.500 126.400,9.323 119.200,16.598 106.000 C 33.735 74.904,75.593 33.243,106.000 17.019 C 119.200 9.976,128.094 4.165,125.765 4.107 C 123.435 4.048,110.835 10.405,97.765 18.234 M294.000 16.598 C 325.096 33.735,366.757 75.593,382.981 106.000 C 390.024 119.200,395.835 128.094,395.893 125.765 C 396.582 98.422,317.871 18.382,278.000 5.880 C 273.600 4.500,280.800 9.323,294.000 16.598 M256.579 31.900 C 400.304 76.565,419.896 277.074,287.941 352.864 C 253.938 372.395,229.236 366.096,252.962 343.944 C 259.751 337.605,260.240 336.179,254.925 338.210 C 248.265 340.755,247.913 335.436,248.925 247.457 C 249.965 157.025,250.259 154.000,258.000 154.000 C 265.734 154.000,266.036 157.025,267.075 245.000 C 267.666 295.050,269.658 336.000,271.500 336.000 C 277.827 336.000,310.403 308.849,321.446 294.371 C 438.439 140.986,232.690 -41.212,91.559 90.799 C 61.016 119.369,46.593 106.780,75.610 76.879 C 121.179 29.923,192.876 12.103,256.579 31.900 M60.000 125.677 C 60.000 128.799,57.122 142.586,53.605 156.314 C 27.954 256.440,84.575 338.018,190.315 353.283 C 225.950 358.427,233.220 362.688,222.104 371.913 C 212.278 380.069,157.770 371.454,126.444 356.795 C 48.463 320.303,9.632 223.601,38.988 139.000 C 45.344 120.682,60.000 111.389,60.000 125.677 M193.777 123.639 C 206.098 143.575,87.405 149.898,74.368 130.000 L 67.816 120.000 129.672 120.000 C 163.693 120.000,192.540 121.638,193.777 123.639 M318.000 130.000 C 318.000 137.547,314.960 138.063,264.311 139.121 C 209.849 140.258,201.825 138.322,206.840 125.253 C 210.726 115.128,318.000 119.709,318.000 130.000 M160.000 214.706 C 160.000 272.411,159.977 272.553,151.000 271.278 C 140.421 269.776,134.376 161.948,144.520 155.679 C 157.772 147.488,160.000 155.984,160.000 214.706 M5.880 278.000 C 18.382 317.871,98.422 396.582,125.765 395.893 C 128.094 395.835,119.200 390.024,106.000 382.981 C 75.593 366.757,33.735 325.096,16.598 294.000 C 9.323 280.800,4.500 273.600,5.880 278.000 M382.056 295.237 C 367.126 324.158,325.039 366.296,294.000 383.402 C 280.800 390.677,273.600 395.500,278.000 394.120 C 317.320 381.791,409.106 287.773,395.301 273.967 C 394.480 273.146,388.520 282.718,382.056 295.237 " stroke="none" fill="white" fill-rule="evenodd"></path></g></svg>